<?xml version="1.0" encoding="UTF-8"?>
<svg xmlns="http://www.w3.org/2000/svg" xmlns:xlink="http://www.w3.org/1999/xlink" width="70pt" height="26pt" viewBox="0 0 70 26" version="1.1">
<defs>
<clipPath id="clip1">
  <path d="M 45 1 L 61 1 L 61 16 L 45 16 Z M 45 1 "/>
</clipPath>
<clipPath id="clip2">
  <path d="M 59.574219 3.792969 C 57.398438 0.898438 52.785156 0.703125 49.273438 3.355469 C 45.761719 6.007812 44.679688 10.503906 46.855469 13.398438 C 49.03125 16.289062 53.640625 16.488281 57.15625 13.835938 C 60.667969 11.183594 61.75 6.6875 59.574219 3.792969 Z M 59.574219 3.792969 "/>
</clipPath>
<clipPath id="clip3">
  <path d="M 37.898438 7.160156 L 56.046875 -6.542969 L 68.605469 10.15625 L 50.457031 23.859375 Z M 37.898438 7.160156 "/>
</clipPath>
<clipPath id="clip4">
  <path d="M 59.574219 3.792969 C 57.398438 0.898438 52.785156 0.703125 49.273438 3.355469 C 45.761719 6.007812 44.679688 10.503906 46.855469 13.398438 C 49.03125 16.289062 53.640625 16.488281 57.15625 13.835938 C 60.667969 11.183594 61.75 6.6875 59.574219 3.792969 Z M 59.574219 3.792969 "/>
</clipPath>
<clipPath id="clip5">
  <path d="M 42.953125 8.277344 L 55.660156 -1.320312 L 63.550781 9.167969 L 50.839844 18.765625 Z M 42.953125 8.277344 "/>
</clipPath>
<clipPath id="clip6">
  <path d="M 45 1 L 61 1 L 61 16 L 45 16 Z M 45 1 "/>
</clipPath>
<clipPath id="clip7">
  <path d="M 59.574219 3.792969 C 57.398438 0.898438 52.785156 0.703125 49.273438 3.355469 C 45.761719 6.007812 44.679688 10.503906 46.855469 13.398438 C 49.03125 16.289062 53.640625 16.488281 57.15625 13.835938 C 60.667969 11.183594 61.75 6.6875 59.574219 3.792969 Z M 59.574219 3.792969 "/>
</clipPath>
<clipPath id="clip8">
  <path d="M 37.898438 7.160156 L 56.046875 -6.542969 L 68.605469 10.15625 L 50.457031 23.859375 Z M 37.898438 7.160156 "/>
</clipPath>
<clipPath id="clip9">
  <path d="M 59.574219 3.792969 C 57.398438 0.898438 52.785156 0.703125 49.273438 3.355469 C 45.761719 6.007812 44.679688 10.503906 46.855469 13.398438 C 49.03125 16.289062 53.640625 16.488281 57.15625 13.835938 C 60.667969 11.183594 61.75 6.6875 59.574219 3.792969 Z M 59.574219 3.792969 "/>
</clipPath>
<clipPath id="clip10">
  <path d="M 44.761719 14.574219 L 49.148438 -0.753906 L 61.75 2.867188 L 57.363281 18.195312 Z M 44.761719 14.574219 "/>
</clipPath>
<clipPath id="clip11">
  <path d="M 45 1 L 61 1 L 61 16 L 45 16 Z M 45 1 "/>
</clipPath>
<clipPath id="clip12">
  <path d="M 59.574219 3.792969 C 57.398438 0.898438 52.785156 0.703125 49.273438 3.355469 C 45.761719 6.007812 44.679688 10.503906 46.855469 13.398438 C 49.03125 16.289062 53.640625 16.488281 57.15625 13.835938 C 60.667969 11.183594 61.75 6.6875 59.574219 3.792969 Z M 59.574219 3.792969 "/>
</clipPath>
<clipPath id="clip13">
  <path d="M 37.898438 7.160156 L 56.046875 -6.542969 L 68.605469 10.15625 L 50.457031 23.859375 Z M 37.898438 7.160156 "/>
</clipPath>
<clipPath id="clip14">
  <path d="M 59.574219 3.792969 C 57.398438 0.898438 52.785156 0.703125 49.273438 3.355469 C 45.761719 6.007812 44.679688 10.503906 46.855469 13.398438 C 49.03125 16.289062 53.640625 16.488281 57.15625 13.835938 C 60.667969 11.183594 61.75 6.6875 59.574219 3.792969 Z M 59.574219 3.792969 "/>
</clipPath>
<clipPath id="clip15">
  <path d="M 42.953125 8.277344 L 55.660156 -1.320312 L 63.550781 9.167969 L 50.839844 18.765625 Z M 42.953125 8.277344 "/>
</clipPath>
<clipPath id="clip16">
  <path d="M 45 1 L 61 1 L 61 16 L 45 16 Z M 45 1 "/>
</clipPath>
<clipPath id="clip17">
  <path d="M 59.574219 3.792969 C 57.398438 0.898438 52.785156 0.703125 49.273438 3.355469 C 45.761719 6.007812 44.679688 10.503906 46.855469 13.398438 C 49.03125 16.289062 53.640625 16.488281 57.15625 13.835938 C 60.667969 11.183594 61.75 6.6875 59.574219 3.792969 Z M 59.574219 3.792969 "/>
</clipPath>
<clipPath id="clip18">
  <path d="M 37.898438 7.160156 L 56.046875 -6.542969 L 68.605469 10.15625 L 50.457031 23.859375 Z M 37.898438 7.160156 "/>
</clipPath>
<clipPath id="clip19">
  <path d="M 59.574219 3.792969 C 57.398438 0.898438 52.785156 0.703125 49.273438 3.355469 C 45.761719 6.007812 44.679688 10.503906 46.855469 13.398438 C 49.03125 16.289062 53.640625 16.488281 57.15625 13.835938 C 60.667969 11.183594 61.75 6.6875 59.574219 3.792969 Z M 59.574219 3.792969 "/>
</clipPath>
<clipPath id="clip20">
  <path d="M 44.761719 14.574219 L 49.148438 -0.753906 L 61.75 2.867188 L 57.363281 18.195312 Z M 44.761719 14.574219 "/>
</clipPath>
<clipPath id="clip21">
  <path d="M 45 1 L 61 1 L 61 16 L 45 16 Z M 45 1 "/>
</clipPath>
<clipPath id="clip22">
  <path d="M 59.574219 3.792969 C 57.398438 0.898438 52.785156 0.703125 49.273438 3.355469 C 45.761719 6.007812 44.679688 10.503906 46.855469 13.398438 C 49.03125 16.289062 53.640625 16.488281 57.15625 13.835938 C 60.667969 11.183594 61.75 6.6875 59.574219 3.792969 Z M 59.574219 3.792969 "/>
</clipPath>
<clipPath id="clip23">
  <path d="M 37.898438 7.160156 L 56.046875 -6.542969 L 68.605469 10.15625 L 50.457031 23.859375 Z M 37.898438 7.160156 "/>
</clipPath>
<clipPath id="clip24">
  <path d="M 59.574219 3.792969 C 57.398438 0.898438 52.785156 0.703125 49.273438 3.355469 C 45.761719 6.007812 44.679688 10.503906 46.855469 13.398438 C 49.03125 16.289062 53.640625 16.488281 57.15625 13.835938 C 60.667969 11.183594 61.75 6.6875 59.574219 3.792969 Z M 59.574219 3.792969 "/>
</clipPath>
<clipPath id="clip25">
  <path d="M 45 1 L 61 1 L 61 16 L 45 16 Z M 45 1 "/>
</clipPath>
<clipPath id="clip26">
  <path d="M 59.574219 3.792969 C 57.398438 0.898438 52.785156 0.703125 49.273438 3.355469 C 45.761719 6.007812 44.679688 10.503906 46.855469 13.398438 C 49.03125 16.289062 53.640625 16.488281 57.15625 13.835938 C 60.667969 11.183594 61.75 6.6875 59.574219 3.792969 Z M 59.574219 3.792969 "/>
</clipPath>
<clipPath id="clip27">
  <path d="M 37.898438 7.160156 L 56.046875 -6.542969 L 68.605469 10.15625 L 50.457031 23.859375 Z M 37.898438 7.160156 "/>
</clipPath>
<clipPath id="clip28">
  <path d="M 49 4 L 58 4 L 58 13 L 49 13 Z M 49 4 "/>
</clipPath>
<clipPath id="clip29">
  <path d="M 59.574219 3.792969 C 57.398438 0.898438 52.785156 0.703125 49.273438 3.355469 C 45.761719 6.007812 44.679688 10.503906 46.855469 13.398438 C 49.03125 16.289062 53.640625 16.488281 57.15625 13.835938 C 60.667969 11.183594 61.75 6.6875 59.574219 3.792969 Z M 59.574219 3.792969 "/>
</clipPath>
<clipPath id="clip30">
  <path d="M 37.898438 7.160156 L 56.046875 -6.542969 L 68.605469 10.15625 L 50.457031 23.859375 Z M 37.898438 7.160156 "/>
</clipPath>
</defs>
<g id="surface1">
<path style=" stroke:none;fill-rule:nonzero;fill:rgb(0%,0%,0%);fill-opacity:1;" d="M 36.136719 8.613281 L 39.460938 8.398438 C 39.539062 8.941406 39.675781 9.347656 39.902344 9.636719 C 40.269531 10.09375 40.777344 10.320312 41.445312 10.320312 C 41.9375 10.320312 42.332031 10.207031 42.597656 9.96875 C 42.847656 9.777344 43 9.472656 43 9.15625 C 43 8.851562 42.863281 8.5625 42.621094 8.371094 C 42.367188 8.144531 41.773438 7.914062 40.839844 7.710938 C 39.308594 7.371094 38.210938 6.914062 37.566406 6.332031 C 36.921875 5.789062 36.554688 4.988281 36.578125 4.140625 C 36.578125 3.558594 36.757812 2.976562 37.085938 2.496094 C 37.464844 1.949219 37.984375 1.519531 38.601562 1.277344 C 39.273438 0.988281 40.207031 0.835938 41.382812 0.835938 C 42.824219 0.835938 43.921875 1.101562 44.683594 1.644531 C 45.441406 2.179688 45.894531 3.039062 46.035156 4.21875 L 42.75 4.40625 C 42.660156 3.902344 42.484375 3.535156 42.191406 3.292969 C 41.902344 3.050781 41.523438 2.9375 41.027344 2.9375 C 40.625 2.9375 40.320312 3.027344 40.117188 3.191406 C 39.929688 3.34375 39.804688 3.570312 39.816406 3.824219 C 39.816406 4.015625 39.917969 4.191406 40.070312 4.304688 C 40.234375 4.457031 40.625 4.597656 41.242188 4.722656 C 42.773438 5.054688 43.859375 5.382812 44.53125 5.722656 C 45.199219 6.066406 45.679688 6.484375 45.972656 6.976562 C 46.273438 7.484375 46.425781 8.066406 46.414062 8.664062 C 46.414062 9.371094 46.210938 10.082031 45.808594 10.675781 C 45.390625 11.296875 44.808594 11.777344 44.125 12.070312 C 43.40625 12.386719 42.496094 12.550781 41.410156 12.550781 C 39.488281 12.550781 38.160156 12.183594 37.414062 11.4375 C 36.667969 10.6875 36.226562 9.75 36.136719 8.613281 Z M 0.859375 12.359375 L 0.859375 1.039062 L 6.6875 1.039062 C 7.761719 1.039062 8.59375 1.128906 9.164062 1.316406 C 9.71875 1.496094 10.214844 1.863281 10.542969 2.355469 C 10.910156 2.898438 11.085938 3.535156 11.074219 4.191406 C 11.109375 5.304688 10.542969 6.371094 9.570312 6.925781 C 9.191406 7.144531 8.773438 7.292969 8.34375 7.371094 C 8.660156 7.460938 8.976562 7.609375 9.253906 7.789062 C 9.46875 7.964844 9.644531 8.167969 9.808594 8.382812 C 10 8.597656 10.164062 8.839844 10.300781 9.09375 L 11.996094 12.375 L 8.027344 12.375 L 6.15625 8.890625 C 5.914062 8.445312 5.714844 8.15625 5.523438 8.015625 C 5.269531 7.839844 4.96875 7.75 4.664062 7.75 L 4.359375 7.75 L 4.359375 12.347656 L 0.859375 12.347656 Z M 4.359375 5.621094 L 5.839844 5.621094 C 6.15625 5.597656 6.460938 5.546875 6.761719 5.472656 C 6.992188 5.433594 7.191406 5.304688 7.332031 5.117188 C 7.671875 4.660156 7.621094 4.015625 7.207031 3.621094 C 6.976562 3.433594 6.535156 3.332031 5.902344 3.332031 L 4.359375 3.332031 Z M 0.0625 22.0625 L 3.386719 21.847656 C 3.464844 22.390625 3.601562 22.796875 3.832031 23.085938 C 4.183594 23.542969 4.703125 23.785156 5.371094 23.785156 C 5.867188 23.785156 6.257812 23.667969 6.523438 23.429688 C 6.777344 23.226562 6.925781 22.933594 6.925781 22.617188 C 6.925781 22.316406 6.789062 22.023438 6.546875 21.832031 C 6.296875 21.605469 5.699219 21.378906 4.753906 21.175781 C 3.222656 20.832031 2.125 20.378906 1.480469 19.792969 C 0.835938 19.25 0.46875 18.453125 0.492188 17.601562 C 0.492188 17.019531 0.671875 16.4375 1 15.957031 C 1.378906 15.414062 1.898438 14.980469 2.515625 14.742188 C 3.1875 14.449219 4.121094 14.296875 5.296875 14.296875 C 6.738281 14.296875 7.835938 14.5625 8.59375 15.109375 C 9.355469 15.652344 9.796875 16.5 9.933594 17.679688 L 6.648438 17.871094 C 6.5625 17.363281 6.382812 16.996094 6.09375 16.753906 C 5.816406 16.515625 5.421875 16.398438 4.929688 16.414062 C 4.527344 16.414062 4.222656 16.5 4.019531 16.679688 C 3.816406 16.832031 3.703125 17.058594 3.714844 17.3125 C 3.714844 17.503906 3.816406 17.679688 3.96875 17.792969 C 4.132812 17.945312 4.527344 18.085938 5.144531 18.210938 C 6.675781 18.539062 7.761719 18.871094 8.429688 19.210938 C 9.101562 19.554688 9.582031 19.972656 9.871094 20.464844 C 10.175781 20.972656 10.328125 21.554688 10.328125 22.136719 C 10.328125 22.847656 10.113281 23.542969 9.71875 24.136719 C 9.304688 24.757812 8.722656 25.238281 8.039062 25.53125 C 7.320312 25.847656 6.410156 26.011719 5.320312 26.011719 C 3.402344 26.011719 2.074219 25.644531 1.328125 24.898438 C 0.582031 24.136719 0.164062 23.199219 0.0625 22.0625 Z M 0.0625 22.0625 "/>
<path style=" stroke:none;fill-rule:nonzero;fill:rgb(0%,0%,0%);fill-opacity:1;" d="M 16.875 21.175781 L 19.933594 22.097656 C 19.769531 22.871094 19.429688 23.605469 18.960938 24.253906 C 18.53125 24.820312 17.960938 25.265625 17.316406 25.558594 C 16.660156 25.847656 15.824219 26 14.8125 26 C 13.589844 26 12.578125 25.824219 11.804688 25.46875 C 11.023438 25.113281 10.351562 24.480469 9.785156 23.582031 C 9.214844 22.683594 8.9375 21.53125 8.9375 20.125 C 8.9375 18.25 9.429688 16.804688 10.429688 15.804688 C 11.425781 14.804688 12.828125 14.296875 14.648438 14.296875 C 16.078125 14.296875 17.191406 14.589844 18.011719 15.160156 C 18.820312 15.742188 19.429688 16.628906 19.832031 17.820312 L 16.75 18.503906 C 16.671875 18.238281 16.558594 17.972656 16.40625 17.742188 C 16.21875 17.476562 15.976562 17.273438 15.6875 17.121094 C 15.394531 16.96875 15.066406 16.90625 14.738281 16.90625 C 13.941406 16.90625 13.335938 17.222656 12.917969 17.871094 C 12.601562 18.339844 12.4375 19.085938 12.4375 20.097656 C 12.4375 21.351562 12.628906 22.214844 13.007812 22.683594 C 13.386719 23.152344 13.917969 23.378906 14.613281 23.378906 C 15.28125 23.378906 15.789062 23.1875 16.128906 22.820312 C 16.46875 22.429688 16.722656 21.882812 16.875 21.175781 Z M 24.015625 14.488281 L 27.503906 14.488281 L 27.503906 18.453125 L 31.320312 18.453125 L 31.320312 14.488281 L 34.835938 14.488281 L 34.835938 25.808594 L 31.320312 25.808594 L 31.320312 21.226562 L 27.503906 21.226562 L 27.503906 25.808594 L 24.015625 25.808594 Z M 24.015625 14.488281 "/>
<path style=" stroke:none;fill-rule:nonzero;fill:rgb(0%,0%,0%);fill-opacity:1;" d="M 34.355469 20.148438 C 34.355469 18.300781 34.875 16.855469 35.898438 15.832031 C 36.921875 14.804688 38.363281 14.285156 40.195312 14.285156 C 42.078125 14.285156 43.519531 14.792969 44.542969 15.804688 C 45.566406 16.816406 46.074219 18.238281 46.074219 20.058594 C 46.074219 21.390625 45.84375 22.464844 45.402344 23.316406 C 44.972656 24.152344 44.304688 24.835938 43.480469 25.289062 C 42.632812 25.757812 41.585938 26 40.332031 26 C 39.058594 26 38.007812 25.796875 37.175781 25.390625 C 36.316406 24.960938 35.605469 24.289062 35.140625 23.46875 C 34.621094 22.582031 34.355469 21.480469 34.355469 20.148438 Z M 37.84375 20.160156 C 37.84375 21.300781 38.058594 22.125 38.476562 22.632812 C 38.894531 23.125 39.472656 23.378906 40.207031 23.378906 C 40.953125 23.378906 41.535156 23.136719 41.953125 22.644531 C 42.367188 22.148438 42.570312 21.277344 42.570312 20.007812 C 42.570312 18.945312 42.355469 18.160156 41.925781 17.679688 C 41.496094 17.1875 40.914062 16.945312 40.183594 16.945312 C 39.539062 16.917969 38.917969 17.199219 38.488281 17.691406 C 38.058594 18.1875 37.84375 19.007812 37.84375 20.160156 Z M 49.648438 20.148438 C 49.648438 18.300781 50.167969 16.855469 51.191406 15.832031 C 52.214844 14.804688 53.65625 14.285156 55.488281 14.285156 C 57.371094 14.285156 58.824219 14.792969 59.835938 15.804688 C 60.847656 16.816406 61.367188 18.238281 61.367188 20.058594 C 61.367188 21.390625 61.140625 22.464844 60.695312 23.316406 C 60.265625 24.152344 59.597656 24.835938 58.773438 25.289062 C 57.929688 25.757812 56.878906 26 55.628906 26 C 54.351562 26 53.300781 25.796875 52.46875 25.390625 C 51.609375 24.960938 50.902344 24.289062 50.433594 23.46875 C 49.914062 22.582031 49.648438 21.480469 49.648438 20.148438 Z M 53.136719 20.160156 C 53.136719 21.300781 53.351562 22.125 53.769531 22.632812 C 54.1875 23.125 54.769531 23.378906 55.5 23.378906 C 56.246094 23.378906 56.828125 23.136719 57.246094 22.644531 C 57.664062 22.148438 57.867188 21.277344 57.867188 20.007812 C 57.867188 18.945312 57.652344 18.160156 57.21875 17.679688 C 56.789062 17.1875 56.210938 16.945312 55.476562 16.945312 C 54.832031 16.917969 54.199219 17.199219 53.78125 17.691406 C 53.351562 18.1875 53.136719 19.007812 53.136719 20.160156 Z M 53.136719 20.160156 "/>
<path style=" stroke:none;fill-rule:nonzero;fill:rgb(0%,0%,0%);fill-opacity:1;" d="M 61 14.488281 L 64.488281 14.488281 L 64.488281 23.023438 L 69.9375 23.023438 L 69.9375 25.808594 L 60.988281 25.808594 L 60.988281 14.488281 Z M 61 14.488281 "/>
<path style=" stroke:none;fill-rule:nonzero;fill:rgb(100%,100%,100%);fill-opacity:1;" d="M 59.574219 3.792969 C 57.398438 0.898438 52.785156 0.703125 49.273438 3.355469 C 45.761719 6.007812 44.679688 10.503906 46.855469 13.398438 C 49.03125 16.289062 53.640625 16.488281 57.15625 13.835938 C 60.667969 11.183594 61.75 6.6875 59.574219 3.792969 Z M 59.574219 3.792969 "/>
<g clip-path="url(#clip1)" clip-rule="nonzero">
<g clip-path="url(#clip2)" clip-rule="nonzero">
<path style=" stroke:none;fill-rule:nonzero;fill:rgb(100%,100%,100%);fill-opacity:1;" d="M 37.898438 7.160156 L 56.046875 -6.542969 L 68.605469 10.15625 L 50.457031 23.859375 Z M 37.898438 7.160156 "/>
<g clip-path="url(#clip3)" clip-rule="nonzero">
<path style=" stroke:none;fill-rule:nonzero;fill:rgb(100%,100%,100%);fill-opacity:1;" d="M 59.574219 3.792969 C 57.398438 0.898438 52.785156 0.703125 49.273438 3.355469 C 45.761719 6.007812 44.679688 10.503906 46.855469 13.398438 C 49.03125 16.289062 53.640625 16.488281 57.15625 13.835938 C 60.667969 11.183594 61.75 6.6875 59.574219 3.792969 Z M 59.574219 3.792969 "/>
<g clip-path="url(#clip4)" clip-rule="nonzero">
<path style=" stroke:none;fill-rule:nonzero;fill:rgb(100%,100%,100%);fill-opacity:1;" d="M 42.953125 8.277344 L 55.660156 -1.320312 L 63.550781 9.167969 L 50.839844 18.765625 Z M 42.953125 8.277344 "/>
<g clip-path="url(#clip5)" clip-rule="nonzero">
<path style="fill-rule:nonzero;fill:rgb(100%,100%,100%);fill-opacity:1;stroke-width:4;stroke-linecap:butt;stroke-linejoin:miter;stroke:rgb(0%,0%,0%);stroke-opacity:1;stroke-miterlimit:10;" d="M 483.506553 67.896411 C 483.514361 39.283527 455.294093 16.086166 420.50146 16.0913 C 385.708827 16.096434 357.506112 39.297107 357.498303 67.909991 C 357.509058 96.498242 385.686082 119.701636 420.503396 119.715102 C 455.296029 119.709968 483.498744 96.509295 483.506553 67.896411 Z M 483.506553 67.896411 " transform="matrix(0.100944,-0.076218,0.0760696,0.101141,5.602259,33.777754)"/>
</g>
</g>
</g>
</g>
</g>
<g clip-path="url(#clip6)" clip-rule="nonzero">
<g clip-path="url(#clip7)" clip-rule="nonzero">
<g clip-path="url(#clip8)" clip-rule="nonzero">
<g clip-path="url(#clip9)" clip-rule="nonzero">
<g clip-path="url(#clip10)" clip-rule="nonzero">
<path style="fill:none;stroke-width:4;stroke-linecap:butt;stroke-linejoin:miter;stroke:rgb(0%,0%,0%);stroke-opacity:1;stroke-miterlimit:10;" d="M 357.800223 17.018138 L 483.697302 16.995829 L 483.713285 120.706095 L 357.791524 120.709805 Z M 357.800223 17.018138 " transform="matrix(0.100945,-0.0762162,0.0760678,0.101142,5.540314,33.826271)"/>
</g>
</g>
</g>
</g>
</g>
<g clip-path="url(#clip11)" clip-rule="nonzero">
<g clip-path="url(#clip12)" clip-rule="nonzero">
<g clip-path="url(#clip13)" clip-rule="nonzero">
<g clip-path="url(#clip14)" clip-rule="nonzero">
<path style="fill:none;stroke-width:4;stroke-linecap:butt;stroke-linejoin:miter;stroke:rgb(0%,0%,0%);stroke-opacity:1;stroke-miterlimit:10;" d="M 483.506553 67.896411 C 483.514361 39.283527 455.294093 16.086166 420.50146 16.0913 C 385.708827 16.096434 357.506112 39.297107 357.498303 67.909991 C 357.509058 96.498242 385.686082 119.701636 420.503396 119.715102 C 455.296029 119.709968 483.498744 96.509295 483.506553 67.896411 Z M 483.506553 67.896411 " transform="matrix(0.100944,-0.076218,0.0760696,0.101141,5.602259,33.777754)"/>
<path style=" stroke:none;fill-rule:nonzero;fill:rgb(100%,100%,100%);fill-opacity:1;" d="M 42.953125 8.277344 L 55.660156 -1.320312 L 63.550781 9.167969 L 50.839844 18.765625 Z M 42.953125 8.277344 "/>
<g clip-path="url(#clip15)" clip-rule="nonzero">
<path style="fill-rule:nonzero;fill:rgb(100%,100%,100%);fill-opacity:1;stroke-width:4;stroke-linecap:butt;stroke-linejoin:miter;stroke:rgb(0%,0%,0%);stroke-opacity:1;stroke-miterlimit:10;" d="M 483.506553 67.896411 C 483.514361 39.283527 455.294093 16.086166 420.50146 16.0913 C 385.708827 16.096434 357.506112 39.297107 357.498303 67.909991 C 357.509058 96.498242 385.686082 119.701636 420.503396 119.715102 C 455.296029 119.709968 483.498744 96.509295 483.506553 67.896411 Z M 483.506553 67.896411 " transform="matrix(0.100944,-0.076218,0.0760696,0.101141,5.602259,33.777754)"/>
</g>
</g>
</g>
</g>
</g>
<g clip-path="url(#clip16)" clip-rule="nonzero">
<g clip-path="url(#clip17)" clip-rule="nonzero">
<g clip-path="url(#clip18)" clip-rule="nonzero">
<g clip-path="url(#clip19)" clip-rule="nonzero">
<g clip-path="url(#clip20)" clip-rule="nonzero">
<path style="fill:none;stroke-width:4;stroke-linecap:butt;stroke-linejoin:miter;stroke:rgb(0%,0%,0%);stroke-opacity:1;stroke-miterlimit:10;" d="M 357.800223 17.018138 L 483.697302 16.995829 L 483.713285 120.706095 L 357.791524 120.709805 Z M 357.800223 17.018138 " transform="matrix(0.100945,-0.0762162,0.0760678,0.101142,5.540314,33.826271)"/>
</g>
</g>
</g>
</g>
</g>
<g clip-path="url(#clip21)" clip-rule="nonzero">
<g clip-path="url(#clip22)" clip-rule="nonzero">
<g clip-path="url(#clip23)" clip-rule="nonzero">
<g clip-path="url(#clip24)" clip-rule="nonzero">
<path style="fill:none;stroke-width:4;stroke-linecap:butt;stroke-linejoin:miter;stroke:rgb(0%,0%,0%);stroke-opacity:1;stroke-miterlimit:10;" d="M 330.906771 -14.198497 L 510.694409 -14.199218 L 510.68733 150.903727 L 330.899692 150.904447 Z M 330.906771 -14.198497 " transform="matrix(0.100944,-0.076218,0.0760696,0.101141,5.575441,33.817255)"/>
</g>
</g>
</g>
</g>
<g clip-path="url(#clip25)" clip-rule="nonzero">
<g clip-path="url(#clip26)" clip-rule="nonzero">
<g clip-path="url(#clip27)" clip-rule="nonzero">
<path style="fill:none;stroke-width:4;stroke-linecap:butt;stroke-linejoin:miter;stroke:rgb(0%,0%,0%);stroke-opacity:1;stroke-miterlimit:10;" d="M 483.506553 67.896411 C 483.514361 39.283527 455.294093 16.086166 420.50146 16.0913 C 385.708827 16.096434 357.506112 39.297107 357.498303 67.909991 C 357.509058 96.498242 385.686082 119.701636 420.503396 119.715102 C 455.296029 119.709968 483.498744 96.509295 483.506553 67.896411 Z M 483.506553 67.896411 " transform="matrix(0.100944,-0.076218,0.0760696,0.101141,5.602259,33.777754)"/>
</g>
</g>
</g>
<g clip-path="url(#clip28)" clip-rule="nonzero">
<g clip-path="url(#clip29)" clip-rule="nonzero">
<g clip-path="url(#clip30)" clip-rule="nonzero">
<path style=" stroke:none;fill-rule:nonzero;fill:rgb(0%,0%,0%);fill-opacity:1;" d="M 49.660156 7.761719 L 50.925781 6.875 L 52.480469 9.09375 C 52.746094 9.449219 52.949219 9.828125 53.101562 10.246094 C 53.1875 10.5625 53.164062 10.902344 53.035156 11.207031 C 52.871094 11.589844 52.605469 11.90625 52.253906 12.132812 C 51.835938 12.421875 51.480469 12.589844 51.179688 12.640625 C 50.886719 12.691406 50.585938 12.640625 50.308594 12.511719 C 50.003906 12.359375 49.738281 12.144531 49.535156 11.867188 L 50.621094 10.851562 C 50.710938 10.992188 50.824219 11.121094 50.953125 11.21875 C 51.039062 11.285156 51.140625 11.320312 51.253906 11.320312 C 51.34375 11.320312 51.433594 11.285156 51.496094 11.234375 C 51.621094 11.15625 51.710938 11.003906 51.695312 10.851562 C 51.660156 10.636719 51.570312 10.421875 51.433594 10.257812 Z M 53.453125 9.167969 L 54.605469 8.257812 C 54.730469 8.410156 54.894531 8.523438 55.070312 8.585938 C 55.324219 8.664062 55.589844 8.613281 55.804688 8.445312 C 55.957031 8.347656 56.082031 8.207031 56.132812 8.027344 C 56.210938 7.800781 56.082031 7.546875 55.855469 7.472656 C 55.816406 7.460938 55.78125 7.445312 55.742188 7.445312 C 55.589844 7.433594 55.324219 7.496094 54.933594 7.660156 C 54.289062 7.929688 53.78125 8.027344 53.402344 7.992188 C 53.035156 7.953125 52.695312 7.761719 52.492188 7.445312 C 52.339844 7.230469 52.265625 6.976562 52.253906 6.726562 C 52.253906 6.433594 52.328125 6.140625 52.492188 5.902344 C 52.734375 5.558594 53.023438 5.269531 53.378906 5.039062 C 53.910156 4.671875 54.375 4.496094 54.78125 4.496094 C 55.1875 4.496094 55.566406 4.6875 55.917969 5.078125 L 54.78125 5.976562 C 54.554688 5.6875 54.125 5.621094 53.832031 5.851562 L 53.796875 5.890625 C 53.667969 5.964844 53.582031 6.078125 53.53125 6.21875 C 53.492188 6.320312 53.515625 6.433594 53.582031 6.523438 C 53.632812 6.585938 53.707031 6.636719 53.796875 6.636719 C 53.894531 6.648438 54.074219 6.597656 54.324219 6.484375 C 54.957031 6.21875 55.4375 6.066406 55.765625 6.015625 C 56.046875 5.964844 56.335938 5.992188 56.601562 6.105469 C 56.839844 6.207031 57.042969 6.382812 57.183594 6.597656 C 57.359375 6.851562 57.460938 7.15625 57.472656 7.472656 C 57.484375 7.800781 57.398438 8.117188 57.21875 8.398438 C 56.992188 8.738281 56.703125 9.03125 56.359375 9.257812 C 55.664062 9.738281 55.097656 9.941406 54.640625 9.867188 C 54.148438 9.789062 53.746094 9.535156 53.453125 9.167969 Z M 53.453125 9.167969 "/>
</g>
</g>
</g>
</g>
</svg>
